<svg width="167" height="38" fill="none" xmlns="http://www.w3.org/2000/svg"><g clip-path="url(#clip0)"><path d="M75.01 12.33l-.06 1.53h-8.22c.08-1.72.13-4.1.13-7.14 0-2.62-.04-4.77-.13-6.45h1.94c-.08 1.41-.12 3.56-.12 6.45 0 2.38-.04 4.29-.11 5.72 2.08.01 4.28-.03 6.57-.11zm13.3 1.54h-2.2c0-.47-.44-1.93-1.32-4.4h-6.03c-.86 2.43-1.29 3.89-1.29 4.4h-2.11c0-.26.9-2.48 2.69-6.68 1.79-4.2 2.69-6.5 2.69-6.92h2.42c0 .41.86 2.68 2.57 6.82 1.71 4.14 2.58 6.39 2.58 6.78zm-4-5.77c-1.64-4.09-2.45-6.26-2.45-6.52h-.11c0 .22-.85 2.39-2.54 6.52h5.1zm15.99 5.49c-1.14.38-2.29.56-3.46.56-2.44 0-4.29-.65-5.53-1.96-1.24-1.31-1.86-2.92-1.86-4.84 0-1.94.68-3.64 2.03-5.09C92.83.81 94.7.08 97.1.08c.86 0 1.68.1 2.45.3l-.26 1.73c-1.15-.28-2.07-.42-2.78-.42-1.68 0-2.97.51-3.87 1.53-.89 1.02-1.34 2.29-1.34 3.8 0 1.52.51 2.85 1.54 3.99 1.03 1.14 2.48 1.71 4.35 1.71.34 0 .85-.05 1.53-.16-.12-.72-.18-1.57-.18-2.53 0-.81-.05-1.6-.15-2.37h1.9c-.06.92-.08 1.89-.08 2.91.01.46.04 1.46.09 3.02zm15.2-6.73c0 2.25-.66 4.05-1.97 5.39-1.31 1.34-2.84 2.02-4.56 2.02-1.66 0-3.11-.62-4.36-1.85-1.25-1.23-1.87-2.9-1.87-5.01 0-2.28.66-4.08 1.97-5.41 1.32-1.33 2.84-2 4.56-2 1.66 0 3.11.62 4.36 1.85 1.24 1.24 1.87 2.91 1.87 5.01zm-1.86.24c0-1.8-.47-3.19-1.41-4.17-.94-.99-2.03-1.48-3.26-1.48-1.14 0-2.16.52-3.05 1.56-.89 1.04-1.34 2.42-1.34 4.16 0 1.8.48 3.2 1.43 4.18.95.99 2.04 1.48 3.26 1.48 1.14 0 2.16-.53 3.04-1.58.89-1.06 1.33-2.44 1.33-4.15zm7.89.7l-.13 1.35-4.47.15.09-1.34 4.51-.16zm12.84 6.07h-1.47c0-.12-1.14-1.79-3.42-5-2.39-3.38-3.75-5.51-4.08-6.39h-.1c.13 1.68.19 3.12.19 4.31 0 2.34.05 4.7.16 7.08h-1.75c.12-2.26.18-4.64.18-7.14 0-2.46-.06-4.61-.18-6.45h2c0 .19 1.05 1.78 3.15 4.76 2.2 3.13 3.45 5.17 3.76 6.12h.1c-.12-1.7-.18-3.14-.18-4.32 0-2.58-.05-4.76-.15-6.56h1.79c-.12 1.84-.18 4-.18 6.45 0 2.49.06 4.87.18 7.14zm15.02 0h-2.2c0-.47-.44-1.93-1.32-4.4h-6.03c-.86 2.43-1.29 3.89-1.29 4.4h-2.11c0-.26.9-2.48 2.69-6.68 1.79-4.2 2.69-6.5 2.69-6.92h2.42c0 .41.86 2.68 2.57 6.82 1.73 4.14 2.58 6.39 2.58 6.78zm-4-5.77c-1.64-4.09-2.45-6.26-2.45-6.52h-.11c0 .22-.85 2.39-2.54 6.52h5.1zm16.54 5.77h-2.29c0-.08-.4-.68-1.19-1.82-.92-1.32-1.76-2.4-2.52-3.26-1.03-1.16-1.79-1.74-2.29-1.74h-.32c0 1.63.03 3.9.1 6.82h-1.96c.1-2.16.16-4.54.16-7.14 0-2.45-.05-4.6-.16-6.45h1.96c-.07 1.85-.1 3.73-.1 5.64h.24c.38 0 1.34-.89 2.87-2.66s2.29-2.77 2.29-2.98h2.17c0 .21-.74 1.07-2.23 2.58s-2.59 2.53-3.32 3.05v.1c.8.31 2.13 1.69 4 4.15 1.73 2.26 2.59 3.5 2.59 3.71zm4.18 0h-1.98c.1-2.26.16-4.64.16-7.14 0-2.46-.05-4.62-.16-6.45h1.98c-.1 1.9-.15 4.05-.15 6.45 0 2.51.05 4.9.15 7.14z" fill="#00A3A3"/><path d="M75.43 22.93l-.05 1.47c-1.38-.07-2.8-.1-4.27-.1-.01 1.34-.02 3.03-.02 5.09 0 2.27.03 4.65.1 7.14h-1.91c.08-2.37.13-4.75.13-7.14 0-2.03-.02-3.72-.06-5.09-1.03 0-2.48.04-4.34.13l.05-1.49h10.37v-.01zm14.04 6.59c0 2.25-.66 4.05-1.97 5.39-1.32 1.35-2.84 2.02-4.56 2.02-1.66 0-3.11-.62-4.36-1.85-1.25-1.24-1.87-2.9-1.87-5.01 0-2.28.66-4.08 1.97-5.41 1.32-1.33 2.84-2 4.56-2 1.66 0 3.11.62 4.36 1.85 1.24 1.24 1.87 2.91 1.87 5.01zm-1.86.24c0-1.8-.47-3.19-1.41-4.17s-2.03-1.48-3.26-1.48c-1.14 0-2.16.52-3.05 1.56-.89 1.04-1.34 2.42-1.34 4.16 0 1.8.48 3.2 1.43 4.18.95.99 2.04 1.48 3.26 1.48 1.14 0 2.16-.53 3.04-1.58.88-1.05 1.33-2.43 1.33-4.15zm15.75-6.83c-.03 1.32-.05 2.54-.06 3.69-.01 1.14-.02 2.21-.02 3.2 0 4.66-1.84 7-5.52 7-.96 0-1.78-.14-2.47-.41a3.95 3.95 0 01-1.69-1.26c-.44-.56-.77-1.28-.97-2.15-.21-.86-.31-1.88-.31-3.06 0-1.03-.01-2.12-.02-3.28-.01-1.16-.03-2.4-.06-3.71h1.98c-.08 2.65-.13 4.73-.13 6.23 0 1.21.06 2.2.18 2.96.12.76.33 1.4.63 1.91s.68.87 1.14 1.08c.46.21 1.04.32 1.75.32.74 0 1.35-.11 1.82-.32.47-.21.85-.56 1.14-1.05.29-.49.5-1.12.63-1.89.13-.77.19-1.78.19-3.02 0-.74-.01-1.62-.04-2.65-.03-1.03-.06-2.22-.11-3.57h1.94v-.02zm14 13.6h-2.02c-.67-2-1.16-3.32-1.46-3.97-.39-.81-.83-1.34-1.33-1.58-.39-.19-1.09-.28-2.1-.28-.59 0-1.12.01-1.58.02 0 2.25.04 4.18.13 5.81h-1.94c.1-2.16.16-4.54.16-7.14 0-2.45-.05-4.6-.16-6.45h1.47c.31 0 .71-.01 1.19-.03.48-.02 1.03-.03 1.65-.03 3.05 0 4.57 1.05 4.57 3.15 0 1.75-.86 2.98-2.57 3.69v.1c.77.23 1.39.76 1.86 1.6.4.69 1.11 2.4 2.13 5.11zm-3.2-9.79c0-1.66-1.12-2.49-3.36-2.49-.8 0-1.47.05-2.02.14.05 1.21.07 2.86.07 4.94.42.01.82.02 1.2.02 2.74 0 4.11-.87 4.11-2.61z" fill="#878787"/></g><g clip-path="url(#clip1)"><g clip-path="url(#clip2)"><path d="M195.52-100.02h-347.9v259.85h347.9v-259.85z" fill="#00A3A3"/><path d="M57.81 53.22c-3.01-1.57-5.99-3.37-9.17-4.66-1.44-.58-3.4-.52-4.93-.08-3.23.93-6.52 1.96-9.44 3.57-3.98 2.2-7.63 4.98-11.21 7.36 1.21-2.83 2.65-6.17 4.06-9.52 1.75-4.18 3.5-8.36 5.17-12.56.18-.45.06-1.18-.2-1.62-2.61-4.44-6.15-8.02-10.44-10.82-.83-.54-1.98-.71-3.01-.82-1.34-.14-2.71-.03-4.19-.03 2.89-6.79 5.18-13.71 10.07-19.59l-3.26-7.89c-2.93 2.5-5.67 4.82-8.49 7.22-.8-1.63-1.47-3.18-2.3-4.65-.7-1.23-1.37-1.77-2.73-.32C.05 6.96-7.76 15-15.53 23.07c-6.38 6.62-12.75 13.26-19.18 19.83-1.03 1.05-1.13 1.85-.49 3.18 3.06 6.32 5.99 12.71 8.96 19.08 1.8 3.84 3.6 7.68 5.37 11.54.36.78.58 1.63.96 2.7-3.96-.55-7.54-1.01-11.11-1.56-3.45-.53-6.9-1.1-10.33-1.74-.94-.17-2.06-.42-2.69-1.04-2.76-2.72-5.43-5.54-7.98-8.45-.55-.63-.56-1.8-.68-2.74-.62-4.81-.98-9.67-1.85-14.43-.57-3.11-2.56-3.18-4.49-1.57-3.93 3.28-7.42 7.09-11.05 10.72-1.87 1.87-3.68 3.79-5.43 5.76-1.5 1.69-2.74 3.62-4.33 5.21-1.31 1.31-2.87 2.45-4.47 3.39-3.8 2.21-7.69 4.26-11.56 6.35-.36.2-.83.2-1.7.4.19-1.27.23-2.29.5-3.25 1.71-5.87 3.7-11.68 5.12-17.62.75-3.14 1.11-6.6-1.39-9.74-2.89 2.72-5.73 5.22-8.39 7.91-6.19 6.28-12.31 12.62-18.41 18.99-.76.8-1.52 1.87-1.68 2.91-.32 2.05-1.6 2.51-3.24 2.38-4.22-.34-8.42-.81-12.78-1.56 17.65-14.07 32.71-30.39 45.78-48.65l11.83 14.62c2.96-2.56 5.83-5.03 8.69-7.52 6.76-5.89 13.49-11.8 20.3-17.64.28-.24 1.43.05 1.79.44 3.3 3.58 6.51 7.24 10.08 11.25 18.09-17.94 36-35.71 54.21-53.76C25.18-7.95 35.51 5.63 46.14 19.6c1.54-1.15 3.27-2.39 4.94-3.7 6.31-4.91 12.58-9.85 18.93-14.7.34-.26 1.49 0 1.85.4 3.93 4.36 7.79 8.78 11.63 13.21 5.64 6.5 11.25 13.02 16.88 19.52 1.27 1.47 2.78 2.78 3.78 4.4 1.44 2.34 3.46 2.65 5.77 2.16 6.55-1.38 13.2-2.48 19.12-5.86 2.8-1.6 5.45-3.48 8.49-5.44 14.1 16.3 28.55 33.01 43.45 50.25-5.46 0-10.14.12-14.81-.1-.95-.04-2.01-1.24-2.72-2.14-8.21-10.39-16.36-20.82-24.53-31.24-1.06-1.35-2.12-2.69-3.16-4.05-.74-.95-1.28-1.24-2.28-.08-3.48 4.01-7.09 7.89-10.97 12.17 10.45 5.09 17.42 12.85 19.24 24.57-1.97-.77-4.08-1.67-6.24-2.43-3.95-1.39-7.85-3.44-11.91-3.82-3.19-.3-4.49-1.89-6.09-3.92-5.47-6.93-11.01-13.81-16.52-20.71l-4.11-5.12c-3.36 4.24-6.61 8.35-10.25 12.95.18-3.31.28-5.99.5-8.67.17-2.01-.46-3.55-1.68-5.21-5.32-7.25-10.43-14.65-15.62-22-1.35-1.92-2.77-3.79-4.04-5.76-.88-1.36-1.53-1.39-2.58-.13-3.42 4.14-6.76 8.37-10.47 12.23-2.08 2.16-1.73 4.1-.98 6.47 2.05 6.44 3.99 12.91 5.96 19.38.14.45.08.93.09.99z" fill="#fff"/><path d="M-18.22 56.52c.46-5.12 2.12-10.69 5.93-15.07 3.3-3.8 7.92-6.12 12.8-7.6.55-.17 1.27.2 1.91.32-.12.59-.16 1.21-.37 1.77-2.48 6.44-5.55 12.61-9.82 18.03-1.84 2.34-4.25 4.47-6.84 5.89-2.55 1.4-3.72.27-3.61-3.34z" fill="#fff"/></g></g><g clip-path="url(#clip3)"><path d="M49.78 0H0v37.18h49.78V0z" fill="#00A3A3"/><path d="M30.24 22.03c-.44-.23-.88-.5-1.35-.69-.21-.09-.5-.08-.73-.01-.48.14-.96.29-1.39.53-.59.32-1.13.74-1.65 1.09.18-.42.39-.91.6-1.41.26-.62.52-1.23.76-1.85.03-.07.01-.17-.03-.24-.39-.66-.91-1.18-1.54-1.6-.12-.08-.29-.11-.44-.12-.2-.02-.4 0-.62 0 .43-1 .76-2.02 1.49-2.89-.14-.35-.3-.73-.48-1.17-.43.37-.84.71-1.25 1.07-.12-.24-.22-.47-.34-.69-.1-.18-.2-.26-.4-.05-1.14 1.2-2.29 2.39-3.44 3.58-.94.98-1.88 1.96-2.83 2.93-.15.15-.17.27-.07.47.45.93.88 1.88 1.32 2.82.27.57.53 1.13.79 1.7.05.12.09.24.14.4-.58-.08-1.11-.15-1.64-.23-.51-.08-1.02-.16-1.53-.26-.14-.03-.3-.06-.4-.15-.41-.4-.8-.82-1.18-1.25-.08-.09-.08-.27-.1-.4-.09-.71-.14-1.43-.27-2.13-.08-.46-.38-.47-.66-.23-.58.48-1.1 1.05-1.63 1.58-.28.28-.54.56-.8.85-.22.25-.4.53-.64.77-.19.19-.42.36-.66.5-.56.33-1.14.63-1.71.94-.05.03-.12.03-.25.06.03-.19.03-.34.07-.48.25-.87.55-1.72.76-2.6.11-.46.16-.97-.21-1.44-.43.4-.85.77-1.24 1.17-.91.93-1.82 1.86-2.72 2.8-.11.12-.22.28-.25.43-.05.3-.24.37-.48.35-.62-.05-1.24-.12-1.89-.23 2.61-2.08 4.83-4.49 6.76-7.18.59.73 1.16 1.43 1.75 2.16.44-.38.86-.74 1.28-1.11 1-.87 1.99-1.74 3-2.6.04-.04.21.01.26.06.49.53.96 1.07 1.49 1.66 2.67-2.65 5.32-5.27 8-7.94 1.53 2.01 3.05 4.01 4.62 6.07.23-.17.48-.35.73-.55.93-.72 1.86-1.45 2.8-2.17.05-.04.22 0 .27.06.58.64 1.15 1.3 1.72 1.95l2.49 2.88c.19.22.41.41.56.65.21.35.51.39.85.32.97-.2 1.95-.37 2.82-.87.41-.24.8-.51 1.25-.8 2.08 2.41 4.21 4.87 6.42 7.42-.81 0-1.5.02-2.19-.01-.14-.01-.3-.18-.4-.32a815.63 815.63 0 01-3.62-4.61c-.16-.2-.31-.4-.47-.6-.11-.14-.19-.18-.34-.01-.51.59-1.05 1.16-1.62 1.8 1.54.75 2.57 1.9 2.84 3.63-.29-.11-.6-.25-.92-.36-.58-.21-1.16-.51-1.76-.56-.47-.04-.66-.28-.9-.58-.81-1.02-1.63-2.04-2.44-3.06-.19-.24-.38-.48-.61-.76-.5.63-.98 1.23-1.51 1.91.03-.49.04-.88.07-1.28.02-.3-.07-.52-.25-.77-.79-1.07-1.54-2.16-2.31-3.25-.2-.28-.41-.56-.6-.85-.13-.2-.23-.21-.38-.02-.51.61-1 1.24-1.55 1.81-.31.32-.26.61-.14.96.3.95.59 1.91.88 2.86.05.06.04.13.04.14z" fill="#fff"/><path d="M19.01 22.52c.07-.76.31-1.58.88-2.23.49-.56 1.17-.9 1.89-1.12.08-.02.19.03.28.05-.02.09-.02.18-.05.26-.37.95-.82 1.86-1.45 2.66-.27.34-.63.66-1.01.87-.38.21-.55.04-.54-.49zm12.39.76c.47-.81.92-1.59 1.37-2.37.02 0 .03 0 .05.01-.07.36-.12.71-.2 1.07-.11.53-.24 1.06-.35 1.59-.04.19-.1.25-.26.14-.2-.13-.4-.28-.61-.44z" fill="#fff"/></g><defs><clipPath id="clip0"><path fill="#fff" transform="translate(65)" d="M0 0h101.11v36.94H0z"/></clipPath><clipPath id="clip1"><path fill="#fff" d="M0 0h49.778v37.176H0z"/></clipPath><clipPath id="clip2"><path fill="#fff" transform="translate(-147 -96)" d="M0 0h337.15v251.81H0z"/></clipPath><clipPath id="clip3"><path fill="#fff" d="M0 0h49.78v37.18H0z"/></clipPath></defs></svg>