<svg width="74" height="20" fill="none" xmlns="http://www.w3.org/2000/svg"><path d="M34.2.6v18.9h39.3V.6H34.2z" fill="#706F6F"/><path d="M43.9 18.8c-1.3.4-2.4.6-3.4.6-1.7 0-3-.5-3.9-1.4-.9-1-1.4-2.3-1.4-4.2 0-1.8.5-3.2 1.4-4.1.9-.9 2.2-1.5 3.9-1.5 1.1 0 2.2.2 3.4.5v1.4c-1.5-.5-2.6-.7-3.4-.7-1.1 0-2.1.4-2.7 1.2-.6.8-1 1.9-1 3.3s.3 2.5 1 3.3c.7.8 1.6 1.2 2.9 1.2.5 0 1-.1 1.6-.3v-3.5H44l-.1 4.2zm20.4.3H58V8.4h1.5V18h4.8v1.1zm8 0H66V8.4h6v1.2h-4.4V13h3.7v1.1h-3.7V18h4.7v1.1z" fill="#fff"/><path d="M9 15.1L4 1.2H.5v17.9h2.2V4.5l4.8 13.4h2.4l4.9-13.3v14.5h2.4V1.2h-3.1L9 15.1zm15.4-4.4h6.2V8.8h-6.2V3.1h7.5V1.2H21.8v17.9h10.6v-1.9h-8v-6.5z" fill="#706F6F"/><path d="M52 8.4h-1.5l-4.2 10.7h1.4l1.2-3h4.5l1.2 3h1.6L52 8.4zM49.3 15l1.8-4.6L53 15h-3.7z" fill="#fff"/></svg>